<svg width="68" height="77" viewBox="0 0 68 77" fill="none" xmlns="http://www.w3.org/2000/svg">
<path d="M34.1487 0.788818C32.0474 0.788818 30.3419 2.49424 30.3419 4.59555V27.436C30.3419 29.5373 32.0474 31.2427 34.1487 31.2427C36.25 31.2427 37.9554 29.5373 37.9554 27.436V4.59555C37.9554 2.49424 36.25 0.788818 34.1487 0.788818ZM3.45689 18.0372C2.51587 18.2884 1.72217 18.9127 1.19685 19.8225C0.145425 21.6421 0.803229 24.0061 2.62437 25.0568L22.3714 36.477C24.1922 37.5276 26.5542 36.8691 27.6049 35.0494C28.6556 33.2298 28.0008 30.8658 26.1781 29.8152L6.4311 18.395C5.52053 17.8696 4.39791 17.7859 3.45689 18.0372ZM64.8386 18.0372C63.8983 17.7859 62.7753 17.8696 61.8655 18.395L42.12 29.8152C40.2966 30.8658 39.6418 33.2298 40.6925 35.0494C41.7431 36.8691 44.1033 37.5276 45.9267 36.477L65.6722 25.0568C67.4957 24.0061 68.1504 21.6421 67.0998 19.8225C66.5744 18.9127 65.7826 18.2884 64.8386 18.0372ZM25.2264 40.8776C24.2854 40.6263 23.282 40.71 22.3714 41.2354L2.62437 52.6556C0.80361 53.7062 0.145425 56.0702 1.19685 57.8898C2.24788 59.7095 4.61034 60.368 6.4311 59.3174L26.1781 47.8972C28.0008 46.8465 28.5376 44.4825 27.4869 42.6629C26.9616 41.7531 26.1679 41.1288 25.2264 40.8776ZM43.0717 40.8776C42.1314 41.1288 41.3358 41.7531 40.8105 42.6629C39.7598 44.4825 40.4184 46.8465 42.238 47.8972L61.8655 59.3174C63.6889 60.368 66.0491 59.7095 67.0998 57.8898C68.1504 56.0702 67.4957 53.7062 65.6722 52.6556L46.0447 41.3534C45.1349 40.8281 44.0119 40.6263 43.0717 40.8776ZM34.1487 46.4696C32.0474 46.4696 30.3419 48.1751 30.3419 50.2764V73.1168C30.3419 75.2181 32.0474 76.9235 34.1487 76.9235C36.25 76.9235 37.9554 75.2181 37.9554 73.1168V50.2764C37.9554 48.1751 36.25 46.4696 34.1487 46.4696Z" fill="white"/>
</svg>
