<svg width="26" height="30" viewBox="0 0 26 30" fill="none" xmlns="http://www.w3.org/2000/svg">
<path d="M13.0696 0.917358C12.2937 0.917358 11.664 1.54705 11.664 2.32292V12.5133L2.83569 7.41809C2.49976 7.22412 2.08513 7.19321 1.73795 7.28598C1.38937 7.37874 1.097 7.60925 0.903036 7.94518C0.515101 8.61704 0.756858 9.48989 1.43012 9.87783L10.2149 14.973L1.43012 20.0682C0.756858 20.4561 0.515101 21.329 0.903036 22.0008C1.29097 22.6727 2.16242 22.9158 2.83569 22.5279L11.664 17.4327V27.6231C11.664 28.3989 12.2937 29.0286 13.0696 29.0286C13.8455 29.0286 14.4752 28.3989 14.4752 27.6231V17.4327L23.3035 22.5279C23.9768 22.9158 24.8482 22.6727 25.2362 22.0008C25.6241 21.329 25.3824 20.4561 24.7091 20.0682L15.9243 14.973L24.7091 9.87783C25.3824 9.48989 25.6241 8.61704 25.2362 7.94518C25.0422 7.60925 24.7498 7.37874 24.4013 7.28598C24.0541 7.19321 23.6395 7.22412 23.3035 7.41809L14.4752 12.5133V2.32292C14.4752 1.54705 13.8455 0.917358 13.0696 0.917358Z" fill="white"/>
</svg>
