<svg width="40" height="46" viewBox="0 0 40 46" fill="none" xmlns="http://www.w3.org/2000/svg">
<path d="M20.2247 0.733765C18.9962 0.733765 17.9992 1.73078 17.9992 2.95924V19.0939L4.02099 11.0266C3.4891 10.7195 2.8326 10.6705 2.28291 10.8174C1.73099 10.9643 1.26807 11.3293 0.960956 11.8611C0.346724 12.9249 0.729506 14.3069 1.79551 14.9212L15.7047 22.9885L1.79551 31.0559C0.729506 31.6701 0.346724 33.0521 0.960956 34.1159C1.57519 35.1797 2.95498 35.5647 4.02099 34.9505L17.9992 26.8831V43.0178C17.9992 44.2463 18.9962 45.2433 20.2247 45.2433C21.4532 45.2433 22.4502 44.2463 22.4502 43.0178V26.8831L36.4284 34.9505C37.4944 35.5647 38.8742 35.1797 39.4884 34.1159C40.1027 33.0521 39.7199 31.6701 38.6539 31.0559L24.7446 22.9885L38.6539 14.9212C39.7199 14.3069 40.1027 12.9249 39.4884 11.8611C39.1813 11.3293 38.7184 10.9643 38.1665 10.8174C37.6168 10.6705 36.9603 10.7195 36.4284 11.0266L22.4502 19.0939V2.95924C22.4502 1.73078 21.4532 0.733765 20.2247 0.733765Z" fill="white"/>
</svg>
